#!OML:ASF H:\Male1\Project 1\Capture day 1\Session 1\Male1.ASF
:FULLY-SPECIFIED
:DEGREES
948
root -2.45108 15.4427 1.59342 -1114.02 93.3542 1049.41
lowerback 7.82835 0.876818 2.57611
upperback 5.20711 1.50108 -0.669098
thorax 1.07962 0.901974 -2.23355
lowerneck -10.4101 3.59749 6.73276
upperneck 16.4365 4.6961 -4.46718
head 7.00247 2.35617 -2.11467
rclavicle -1.93815e-014 1.19271e-014
rhumerus -32.259 6.88261 -87.0408
rradius 32.7982
rwrist -19.0717
rhand -17.8687 -1.41639
rfingers 7.12502
rthumb 8.39701 -31.2295
lclavicle -1.93815e-014 1.19271e-014
lhumerus -31.2529 -12.5076 88.0285
lradius 34.4522
lwrist 0.904527
lhand -17.3198 12.2076
lfingers 7.12502
lthumb 8.92679 41.9988
rfemur -2.75817 11.8912 24.1124
rtibia 23.6512
rfoot -27.139 -30.9019
rtoes -10.8933
lfemur -17.4438 -6.06471 -19.359
ltibia 51.6532
lfoot -15.1296 13.864
ltoes -8.18393
949
root -2.6254 15.434 1.58214 -1110.27 93.3328 1053.36
lowerback 7.73667 0.783017 2.66786
upperback 5.12216 1.37495 -0.597414
thorax 1.03517 0.835975 -2.20215
lowerneck -10.3162 3.59754 6.80333
upperneck 16.7253 4.71303 -4.47942
head 7.08223 2.37421 -2.12972
rclavicle -1.33683e-014 1.59028e-015
rhumerus -32.8745 6.29988 -86.7995
rradius 32.0041
rwrist -18.4478
rhand -18.1594 -1.14733
rfingers 7.12502
rthumb 8.1165 -30.9715
lclavicle -1.33683e-014 1.59028e-015
lhumerus -30.9652 -12.4535 88.0871
lradius 34.4259
lwrist 0.749601
lhand -18.235 12.2362
lfingers 7.12502
lthumb 8.04355 42.0632
rfemur -3.44581 11.7072 24.0657
rtibia 24.0053
rfoot -26.9486 -30.4107
rtoes -10.1727
lfemur -15.7585 -5.47047 -18.9983
ltibia 53.3611
lfoot -14.8947 13.3279
ltoes -10.5401
950
root -2.79925 15.432 1.57479 -1105.38 93.4311 1058.39
lowerback 7.5233 0.661503 2.6122
upperback 5.06236 1.19975 -0.479823
thorax 1.07633 0.742749 -2.03491
lowerneck -10.2722 3.59906 6.98046
upperneck 17.0635 4.72378 -4.55318
head 7.19081 2.39068 -2.18231
rclavicle -1.73937e-015 -7.7526e-015
rhumerus -33.274 5.76111 -86.5209
rradius 31.2796
rwrist -18.213
rhand -17.9903 -1.66797
rfingers 7.12502
rthumb 8.2797 -31.4857
lclavicle -1.73937e-015 -7.7526e-015
lhumerus -30.622 -12.3631 88.1737
lradius 34.43
lwrist 0.701665
lhand -18.9039 12.3022
lfingers 7.12502
lthumb 7.39787 42.1528
rfemur -4.12786 11.5109 24.0541
rtibia 24.1866
rfoot -26.5779 -30.187
rtoes -9.80297
lfemur -14.0283 -4.99664 -18.5337
ltibia 54.6983
lfoot -14.6971 12.7262
ltoes -13.5924
951
root -2.96647 15.4299 1.56053 -1099.95 93.9662 1064.08
lowerback 7.25517 0.391379 2.51308
upperback 5.08777 0.826626 -0.364671
thorax 1.22641 0.553701 -1.83326
lowerneck -10.2508 3.62316 6.99352
upperneck 17.3472 4.76434 -4.49398
head 7.28069 2.42119 -2.16129
rclavicle -3.03147e-015 -6.16232e-015
rhumerus -33.3914 4.90333 -86.0028
rradius 30.3999
rwrist -17.2367
rhand -17.2668 -1.68176
rfingers 7.12502
rthumb 8.9779 -31.4707
lclavicle -3.03147e-015 -6.16232e-015
lhumerus -30.18 -12.1472 88.2851
lradius 34.3365
lwrist 0.808404
lhand -19.2948 12.4731
lfingers 7.12502
lthumb 7.02058 42.3366
rfemur -4.56147 11.3406 24.0202
rtibia 24.2922
rfoot -26.5959 -30.3068
rtoes -9.30907
lfemur -12.0561 -5.05221 -18.1723
ltibia 55.5926
lfoot -14.7392 11.9855
ltoes -15.7892
952
root -3.13562 15.4283 1.54161 -1099.78 93.924 1064.46
lowerback 7.07397 0.327017 2.2531
upperback 5.05862 0.718778 -0.280758
thorax 1.28545 0.49076 -1.59256
lowerneck -10.2571 3.64297 6.96838
upperneck 17.6939 4.7977 -4.38376
head 7.39366 2.45082 -2.11743
rclavicle 8.69683e-015 5.36719e-015
rhumerus -33.53 4.25986 -85.5665
rradius 29.4298
rwrist -16.868
rhand -17.311 -1.01519
rfingers 7.12502
rthumb 8.9352 -30.806
lclavicle 8.69683e-015 5.36719e-015
lhumerus -29.7534 -11.7688 88.4095
lradius 34.1764
lwrist 0.896318
lhand -19.4433 12.3109
lfingers 7.12502
lthumb 6.8772 42.1792
rfemur -5.13007 11.3616 23.7843
rtibia 24.4335
rfoot -26.3409 -30.0049
rtoes -8.66315
lfemur -9.8209 -4.72632 -17.9551
ltibia 55.9872
lfoot -15.0997 11.0106
ltoes -17.5095
953
root -3.31025 15.4231 1.51771 -1103.6 93.6924 1060.83
lowerback 7.02087 0.377767 1.86846
upperback 4.96611 0.759793 -0.298992
thorax 1.21497 0.498024 -1.39802
lowerneck -10.4373 3.61836 6.81545
upperneck 18.2924 4.75635 -4.08019
head 7.60835 2.45463 -1.99345
rclavicle -7.05686e-015 5.76476e-015
rhumerus -34.0449 2.99857 -84.9981
rradius 29.0141
rwrist -16.4138
rhand -17.3248 -1.07572
rfingers 7.12502
rthumb 8.92193 -30.8671
lclavicle -7.05686e-015 5.76476e-015
lhumerus -29.4506 -11.5337 88.5547
lradius 34.0904
lwrist 0.923466
lhand -19.2925 12.0391
lfingers 7.12502
lthumb 7.02277 41.9026
rfemur -5.81901 11.2832 23.2861
rtibia 24.6228
rfoot -25.5843 -29.5247
rtoes -8.2523
lfemur -7.40554 -4.3996 -18.0101
ltibia 55.8975
lfoot -15.4428 9.77282
ltoes -19.1794
954
root -3.48727 15.418 1.48609 -1107.32 93.4857 1057.25
lowerback 6.93306 0.441668 1.60596
upperback 4.8658 0.823982 -0.347938
thorax 1.1586 0.520648 -1.30456
lowerneck -10.6072 3.58568 6.71021
upperneck 18.8535 4.68941 -3.76276
head 7.81011 2.45152 -1.8749
rclavicle -1.68967e-014 6.36111e-015
rhumerus -34.5445 1.96762 -84.5677
rradius 28.4748
rwrist -16.5916
rhand -17.5439 -1.26665
rfingers 7.12502
rthumb 8.7105 -31.0669
lclavicle -1.68967e-014 6.36111e-015
lhumerus -29.2161 -11.5983 88.7773
lradius 34.079
lwrist 0.948416
lhand -19.1668 12.1353
lfingers 7.12502
lthumb 7.14415 41.9947
rfemur -6.58273 11.0651 22.7653
rtibia 24.7779
rfoot -24.3989 -29.1432
rtoes -9.24198
lfemur -5.01561 -4.29309 -18.1481
ltibia 55.4207
lfoot -15.4936 8.38921
ltoes -20.3357
955
root -3.66435 15.418 1.45024 -1111.7 93.2642 1052.89
lowerback 6.73006 0.550578 1.38301
upperback 4.70938 0.945672 -0.429076
thorax 1.11074 0.571957 -1.26839
lowerneck -10.6429 3.51803 6.73192
upperneck 19.2968 4.56235 -3.48977
head 7.95114 2.42665 -1.79997
rclavicle 2.13694e-015 -1.39149e-015
rhumerus -34.8757 0.576757 -83.9888
rradius 27.7152
rwrist -16.281
rhand -17.5199 -1.40026
rfingers 7.12502
rthumb 8.73367 -31.1996
lclavicle 2.13694e-015 -1.39149e-015
lhumerus -29.0626 -11.9309 89.0612
lradius 34.1353
lwrist 0.950391
lhand -18.948 12.2776
lfingers 7.12502
lthumb 7.35531 42.1297
rfemur -7.51278 10.9189 22.2115
rtibia 24.9785
rfoot -23.3245 -28.8033
rtoes -10.4952
lfemur -2.86849 -4.33733 -18.4119
ltibia 54.5577
lfoot -15.0058 7.12135
ltoes -21.6796
956
root -3.84019 15.4267 1.41662 -1114.5 93.3299 1049.97
lowerback 6.42168 0.527321 0.991671
upperback 4.48229 0.879502 -0.476022
thorax 1.03889 0.523296 -1.0913
lowerneck -10.6237 3.47712 6.69044
upperneck 19.7234 4.50129 -3.28575
head 8.08097 2.4239 -1.73111
rclavicle 9.34288e-015 1.19271e-015
rhumerus -35.1457 -1.19181 -83.1298
rradius 26.8155
rwrist -15.6872
rhand -17.0144 -0.601443
rfingers 7.12502
rthumb 9.22144 -30.3798
lclavicle 9.34288e-015 1.19271e-015
lhumerus -28.9778 -12.1066 89.3456
lradius 34.1814
lwrist 0.872372
lhand -18.6711 12.3052
lfingers 7.12502
lthumb 7.62262 42.1479
rfemur -8.4677 11.0233 21.64
rtibia 25.1284
rfoot -22.9625 -28.7119
rtoes -10.176
lfemur -1.11185 -4.79039 -18.8235
ltibia 53.3994
lfoot -13.9447 5.95735
ltoes -23.6391
957
root -4.01398 15.414 1.38106 -1110.46 93.7363 1053.84
lowerback 5.95285 0.254976 0.657578
upperback 4.26221 0.484698 -0.385239
thorax 1.05714 0.310637 -0.78706
lowerneck -10.5791 3.52283 6.60907
upperneck 20.0781 4.60617 -3.27743
head 8.19461 2.47715 -1.70351
rclavicle -5.01931e-015 -1.78906e-015
rhumerus -35.2733 -3.29752 -81.9375
rradius 25.8186
rwrist -14.8021
rhand -16.0309 -0.0197978
rfingers 7.12502
rthumb 10.1703 -29.754
lclavicle -5.01931e-015 -1.78906e-015
lhumerus -28.9725 -12.1556 89.6869
lradius 34.2982
lwrist 0.905081
lhand -18.611 12.3253
lfingers 7.12502
lthumb 7.68066 42.1658
rfemur -9.42296 11.1682 21.2788
rtibia 25.3472
rfoot -23.2118 -28.9171
rtoes -8.97272
lfemur 0.605224 -5.79673 -19.1049
ltibia 51.747
lfoot -12.8495 4.3716
ltoes -25.9704
958
root -4.19537 15.4034 1.33241 -1111.7 93.6292 1052.43
lowerback 5.62209 0.182039 0.424473
upperback 4.04893 0.364102 -0.322136
thorax 1.01645 0.238824 -0.584578
lowerneck -10.6481 3.58197 6.45615
upperneck 20.4854 4.72323 -3.20409
head 8.34437 2.53554 -1.63883
rclavicle -1.76421e-014 9.93923e-016
rhumerus -35.2218 -5.97808 -80.4055
rradius 24.6004
rwrist -13.7326
rhand -15.3407 0.365547
rfingers 7.12502
rthumb 10.8361 -29.3349
lclavicle -1.76421e-014 9.93923e-016
lhumerus -28.9747 -12.2807 90.0964
lradius 34.5221
lwrist 0.954987
lhand -18.6172 12.3281
lfingers 7.12502
lthumb 7.67462 42.1688
rfemur -10.5689 10.9507 20.759
rtibia 25.65
rfoot -22.7011 -28.492
rtoes -8.82751
lfemur 2.46952 -6.36583 -19.59
ltibia 49.6828
lfoot -11.9321 2.79672
ltoes -25.7033
959
root -4.3895 15.3871 1.28441 -1112.95 93.6858 1050.91
lowerback 5.30155 0.125355 0.121141
upperback 3.82768 0.264556 -0.324221
thorax 0.963816 0.177855 -0.411351
lowerneck -10.7109 3.59266 6.3654
upperneck 20.8151 4.7473 -3.08718
head 8.46321 2.55739 -1.57986
rclavicle 1.88845e-015 4.77083e-015
rhumerus -35.2472 -8.73912 -78.8754
rradius 23.6081
rwrist -13.0477
rhand -15.4377 0.40404
rfingers 7.12502
rthumb 10.7425 -29.3013
lclavicle 1.88845e-015 4.77083e-015
lhumerus -28.9261 -12.5783 90.4806
lradius 34.9066
lwrist 1.06166
lhand -18.4197 12.5589
lfingers 7.12502
lthumb 7.86528 42.3926
rfemur -11.9501 10.7133 20.1067
rtibia 26.0823
rfoot -22.2699 -28.1276
rtoes -8.75308
lfemur 4.14729 -7.13286 -20.2482
ltibia 47.0187
lfoot -10.9169 1.71943
ltoes -23.8024
960
root -4.60858 15.3605 1.24419 -1111.03 93.906 1052.59
lowerback 5.2576 0.0180526 -0.188053
upperback 3.62971 0.101602 -0.316314
thorax 0.782644 0.0872658 -0.223047
lowerneck -10.5827 3.55554 6.47916
upperneck 20.796 4.70199 -3.16939
head 8.43583 2.53909 -1.6334
rclavicle -6.18717e-015 8.54774e-015
rhumerus -35.2788 -10.9448 -77.7272
rradius 22.8905
rwrist -13.1967
rhand -16.1648 -0.236155
rfingers 7.12502
rthumb 10.0412 -29.9766
lclavicle -6.18717e-015 8.54774e-015
lhumerus -28.8524 -13.0402 90.8059
lradius 35.4908
lwrist 1.3269
lhand -18.2681 12.7879
lfingers 7.12502
lthumb 8.01156 42.6161
rfemur -13.3783 10.6609 19.5825
rtibia 26.541
rfoot -21.934 -28.1183
rtoes -8.57367
lfemur 5.69937 -8.05265 -20.7638
ltibia 43.8014
lfoot -9.40028 1.18082
ltoes -22.6848
961
root -4.81963 15.3274 1.19109 -1111.7 93.6466 1051.84
lowerback 5.17148 0.00598103 -0.332378
upperback 3.57062 0.0768481 -0.281238
thorax 0.769494 0.0707412 -0.105003
lowerneck -10.4843 3.57549 6.53592
upperneck 20.6839 4.73561 -3.24516
head 8.38503 2.55104 -1.66649
rclavicle -2.39784e-015 5.56597e-015
rhumerus -35.1261 -12.5125 -76.8954
rradius 22.2066
rwrist -13.5412
rhand -17.2746 -1.2322
rfingers 7.12502
rthumb 8.97041 -31.0215
lclavicle -2.39784e-015 5.56597e-015
lhumerus -28.7773 -13.3076 91.0986
lradius 36.1344
lwrist 1.68593
lhand -18.4713 12.4796
lfingers 7.12502
lthumb 7.81543 42.3152
rfemur -14.7268 10.8015 19.1828
rtibia 27.0716
rfoot -21.5068 -27.8851
rtoes -8.24342
lfemur 7.56304 -8.5301 -21.2744
ltibia 39.9305
lfoot -7.56398 1.28079
ltoes -20.7932
962
root -5.03396 15.288 1.13371 -1114.05 93.4192 1049.54
lowerback 5.22286 0.00222732 -0.514591
upperback 3.58725 0.065225 -0.308032
thorax 0.758073 0.0624678 -0.0298811
lowerneck -10.475 3.62202 6.57888
upperneck 20.6526 4.77289 -3.16954
head 8.37455 2.5781 -1.64444
rclavicle 9.44227e-016 1.19271e-015
rhumerus -34.9947 -13.7694 -76.2435
rradius 21.716
rwrist -13.4855
rhand -18.1489 -1.67961
rfingers 7.12502
rthumb 8.12659 -31.5034
lclavicle 9.44227e-016 1.19271e-015
lhumerus -28.6882 -13.66 91.3591
lradius 36.8077
lwrist 2.16738
lhand -18.6983 12.1994
lfingers 7.12502
lthumb 7.59637 42.043
rfemur -15.9127 10.9682 18.7043
rtibia 27.5592
rfoot -21.1594 -27.695
rtoes -7.55598
lfemur 9.43937 -8.77712 -21.8963
ltibia 35.6747
lfoot -9.00124 2.4074
ltoes -23.7667
